REM DIRINDEX 1\5,1\2\6,1\2\7,1\3\8,1\3\9,1\4\10,1\4\11,1\4\12
REM DIRNAME folder01,folder02,folder03,folder04,folder05,folder06,folder07,folder08,folder09,folder10,folder11,folder12
TITLE ""
FILE "EJE_DB3000_5th_4B_48.mp3" MP3
  TRACK 01 AUDIO
    TITLE "0:"
    INDEX 01 00:00:00
  TRACK 02 AUDIO
    TITLE "10:cjc026_10041"
    INDEX 01 00:00:05
  TRACK 03 AUDIO
    TITLE "0:"
    INDEX 01 00:01:01
  TRACK 04 AUDIO
    TITLE "11:cjc026_10042"
    INDEX 01 00:01:26
  TRACK 05 AUDIO
    TITLE "0:"
    INDEX 01 00:02:73
  TRACK 06 AUDIO
    TITLE "12:cjc026_10043"
    INDEX 01 00:03:25
  TRACK 07 AUDIO
    TITLE "0:"
    INDEX 01 00:04:21
  TRACK 08 AUDIO
    TITLE "10:cjc026_10044"
    INDEX 01 00:04:46
  TRACK 09 AUDIO
    TITLE "0:"
    INDEX 01 00:05:42
  TRACK 10 AUDIO
    TITLE "11:cjc026_10045"
    INDEX 01 00:05:67
  TRACK 11 AUDIO
    TITLE "0:"
    INDEX 01 00:07:37
  TRACK 12 AUDIO
    TITLE "12:cjc026_10046"
    INDEX 01 00:07:64
  TRACK 13 AUDIO
    TITLE "0:"
    INDEX 01 00:08:62
  TRACK 14 AUDIO
    TITLE "10:cjc026_10047"
    INDEX 01 00:09:10
  TRACK 15 AUDIO
    TITLE "0:"
    INDEX 01 00:10:23
  TRACK 16 AUDIO
    TITLE "11:cjc026_10048"
    INDEX 01 00:10:49
  TRACK 17 AUDIO
    TITLE "0:"
    INDEX 01 00:12:38
  TRACK 18 AUDIO
    TITLE "12:cjc026_10049"
    INDEX 01 00:12:65
  TRACK 19 AUDIO
    TITLE "0:"
    INDEX 01 00:14:04
  TRACK 20 AUDIO
    TITLE "10:cjc026_10050"
    INDEX 01 00:14:29
  TRACK 21 AUDIO
    TITLE "0:"
    INDEX 01 00:16:57
  TRACK 22 AUDIO
    TITLE "11:cjc026_10051"
    INDEX 01 00:17:08
  TRACK 23 AUDIO
    TITLE "0:"
    INDEX 01 00:18:17
  TRACK 24 AUDIO
    TITLE "12:cjc026_10052"
    INDEX 01 00:18:42
  TRACK 25 AUDIO
    TITLE "0:"
    INDEX 01 00:20:71
  TRACK 26 AUDIO
    TITLE "10:cjc026_10053"
    INDEX 01 00:21:21
  TRACK 27 AUDIO
    TITLE "0:"
    INDEX 01 00:22:29
  TRACK 28 AUDIO
    TITLE "11:cjc026_10054"
    INDEX 01 00:22:54
  TRACK 29 AUDIO
    TITLE "0:"
    INDEX 01 00:23:57
  TRACK 30 AUDIO
    TITLE "12:cjc026_10055"
    INDEX 01 00:24:06
  TRACK 31 AUDIO
    TITLE "0:"
    INDEX 01 00:25:15
  TRACK 32 AUDIO
    TITLE "10:cjc026_10056"
    INDEX 01 00:25:41
  TRACK 33 AUDIO
    TITLE "0:"
    INDEX 01 00:26:42
  TRACK 34 AUDIO
    TITLE "11:cjc026_10057"
    INDEX 01 00:26:67
  TRACK 35 AUDIO
    TITLE "0:"
    INDEX 01 00:28:02
  TRACK 36 AUDIO
    TITLE "12:cjc026_10058"
    INDEX 01 00:28:27
  TRACK 37 AUDIO
    TITLE "0:"
    INDEX 01 00:29:31
  TRACK 38 AUDIO
    TITLE "10:cjc026_10059"
    INDEX 01 00:29:58
  TRACK 39 AUDIO
    TITLE "0:"
    INDEX 01 00:31:08
  TRACK 40 AUDIO
    TITLE "11:cjc026_10060"
    INDEX 01 00:31:33
  TRACK 41 AUDIO
    TITLE "0:"
    INDEX 01 00:32:39
  TRACK 42 AUDIO
    TITLE "12:cjc026_10061"
    INDEX 01 00:32:66
  TRACK 43 AUDIO
    TITLE "0:"
    INDEX 01 00:34:18
  TRACK 44 AUDIO
    TITLE "10:cjc026_10062"
    INDEX 01 00:34:43
  TRACK 45 AUDIO
    TITLE "0:"
    INDEX 01 00:35:66
  TRACK 46 AUDIO
    TITLE "11:cjc026_10063"
    INDEX 01 00:36:17
  TRACK 47 AUDIO
    TITLE "0:"
    INDEX 01 00:37:28
  TRACK 48 AUDIO
    TITLE "12:cjc026_10064"
    INDEX 01 00:37:56
  TRACK 49 AUDIO
    TITLE "0:"
    INDEX 01 00:39:03
  TRACK 50 AUDIO
    TITLE "10:cjc026_10065"
    INDEX 01 00:39:31
  TRACK 51 AUDIO
    TITLE "0:"
    INDEX 01 00:40:46
  TRACK 52 AUDIO
    TITLE "11:cjc026_10066"
    INDEX 01 00:40:73
  TRACK 53 AUDIO
    TITLE "0:"
    INDEX 01 00:42:10
  TRACK 54 AUDIO
    TITLE "12:cjc026_10067"
    INDEX 01 00:42:35
  TRACK 55 AUDIO
    TITLE "0:"
    INDEX 01 00:43:52
  TRACK 56 AUDIO
    TITLE "10:cjc026_10068"
    INDEX 01 00:44:05
  TRACK 57 AUDIO
    TITLE "0:"
    INDEX 01 00:45:10
  TRACK 58 AUDIO
    TITLE "11:cjc026_10069"
    INDEX 01 00:45:35
  TRACK 59 AUDIO
    TITLE "0:"
    INDEX 01 00:46:62
  TRACK 60 AUDIO
    TITLE "12:cjc026_10070"
    INDEX 01 00:47:15
  TRACK 61 AUDIO
    TITLE "0:"
    INDEX 01 00:48:20
  TRACK 62 AUDIO
    TITLE "10:cjc026_10071"
    INDEX 01 00:48:46
  TRACK 63 AUDIO
    TITLE "0:"
    INDEX 01 00:49:55
  TRACK 64 AUDIO
    TITLE "11:cjc026_10072"
    INDEX 01 00:50:07
  TRACK 65 AUDIO
    TITLE "0:"
    INDEX 01 00:51:20
  TRACK 66 AUDIO
    TITLE "12:cjc026_10073"
    INDEX 01 00:51:46
  TRACK 67 AUDIO
    TITLE "0:"
    INDEX 01 00:52:55
  TRACK 68 AUDIO
    TITLE "10:cjc026_10074"
    INDEX 01 00:53:06
  TRACK 69 AUDIO
    TITLE "0:"
    INDEX 01 00:54:03
  TRACK 70 AUDIO
    TITLE "11:cjc026_10075"
    INDEX 01 00:54:29
  TRACK 71 AUDIO
    TITLE "0:"
    INDEX 01 00:56:08
  TRACK 72 AUDIO
    TITLE "12:cjc026_10076"
    INDEX 01 00:56:33
  TRACK 73 AUDIO
    TITLE "0:"
    INDEX 01 00:57:31
